<?xml version="1.0" encoding="utf-8"?>
<svg viewBox="0 0 384 512" width="384px" height="512px" xmlns="http://www.w3.org/2000/svg">
  <path opacity="1" d="M192 0c-41.8 0-77.4 26.7-90.5 64H64C28.7 64 0 92.7 0 128V448c0 35.3 28.7 64 64 64H320c35.3 0 64-28.7 64-64V128c0-35.3-28.7-64-64-64H282.5C269.4 26.7 233.8 0 192 0zm0 64a32 32 0 1 1 0 64 32 32 0 1 1 0-64zM112 192H272c8.8 0 16 7.2 16 16s-7.2 16-16 16H112c-8.8 0-16-7.2-16-16s7.2-16 16-16z" style="fill: rgb(255, 255, 255);" transform="matrix(1, 0, 0, 1, -7.105427357601002e-15, 0)"/>
</svg>